<?xml version="1.0" encoding="UTF-8" standalone="no"?>
<!DOCTYPE svg PUBLIC "-//W3C//DTD SVG 1.1//EN" "http://www.w3.org/Graphics/SVG/1.1/DTD/svg11.dtd">
<!-- Created with Vectornator (http://vectornator.io/) -->
<svg height="100%" stroke-miterlimit="10" style="fill-rule:nonzero;clip-rule:evenodd;stroke-linecap:round;stroke-linejoin:round;" version="1.1" viewBox="0 0 387.84 295.45" width="100%" xml:space="preserve" xmlns="http://www.w3.org/2000/svg" xmlns:vectornator="http://vectornator.io" xmlns:xlink="http://www.w3.org/1999/xlink">
<defs/>
<g id="Untitled" vectornator:layerName="Untitled">
<g opacity="1">
<path d="M192.383 121.432C192.383 121.432 199.554 94.344 227.354 84.6269C227.354 84.6269 195.215 84.6269 185.213 114.361C185.213 114.361 180.305 104.829 167.7 100.021C167.7 100.021 178.384 107.049 180.49 117.719C180.49 117.719 163.645 123.979 157.883 95.1976C157.883 95.1976 174.329 92.1245 183.193 105.398C183.193 105.398 189.453 64.3106 245.92 75.6638C245.934 75.6923 235.349 135.048 192.383 121.432Z" fill="#8ec503" fill-rule="nonzero" opacity="1" stroke="none"/>
<path d="M150.101 120.906C150.101 120.906 176.463 144.58 216.683 129.57C216.683 129.57 179.252 155.89 150.101 120.906Z" fill="#0071bc" fill-rule="nonzero" opacity="1" stroke="none"/>
<path d="M216.683 128.517C216.683 128.517 190.506 140.653 156.745 123.481C131.349 109.467 138.107 82.3648 180.689 80.7714L180.831 82.066C180.788 81.7246 172.124 83.1473 171.669 83.2469C166.632 84.3423 161.397 86.2345 157.641 89.9051C154.71 92.7648 152.974 96.9475 153.046 101.045C153.117 104.616 154.81 107.447 156.873 110.221C159.846 114.205 163.602 117.591 167.742 120.323C181.301 129.286 198.273 130.879 214.051 128.873C214.933 128.773 215.801 128.645 216.683 128.517Z" fill="#0071bc" fill-rule="nonzero" opacity="1" stroke="none"/>
<path d="M183.634 98.8255C183.634 98.8255 185.896 90.6449 190.605 87.0455L185.17 68.6641L178.1 71.4099L183.634 98.8255Z" fill="#0071bc" fill-rule="nonzero" opacity="1" stroke="none"/>
<path d="M172.407 64.3706C171.649 59.5265 174.42 55.0693 178.596 54.4154C182.773 53.7614 186.773 57.1583 187.532 62.0024C188.29 66.8466 185.519 71.3037 181.343 71.9577C177.166 72.6117 173.166 69.2148 172.407 64.3706Z" fill="#0071bc" fill-rule="nonzero" opacity="1" stroke="none"/>
<path d="M175.624 95.7524C175.624 94.1888 176.892 92.9213 178.455 92.9213C180.019 92.9213 181.286 94.1888 181.286 95.7524C181.286 97.3161 180.019 98.5836 178.455 98.5836C176.892 98.5836 175.624 97.3161 175.624 95.7524Z" fill="#8ec503" fill-rule="nonzero" opacity="1" stroke="none"/>
<path d="M190.022 80.8852C190.022 79.3215 191.289 78.054 192.853 78.054C194.417 78.054 195.684 79.3215 195.684 80.8852C195.684 82.4488 194.417 83.7163 192.853 83.7163C191.289 83.7163 190.022 82.4488 190.022 80.8852Z" fill="#8ec503" fill-rule="nonzero" opacity="1" stroke="none"/>
</g>
<path d="M140.855 222.8L140.915 222.8L144.555 214.53L147.695 214.53L147.695 215.06C147.395 215.073 147.155 215.11 146.975 215.17C146.788 215.237 146.648 215.347 146.555 215.5C146.455 215.653 146.388 215.867 146.355 216.14C146.322 216.413 146.305 216.76 146.305 217.18L146.305 217.18L146.305 222.66C146.305 223.127 146.325 223.497 146.365 223.77C146.398 224.043 146.468 224.253 146.575 224.4C146.682 224.547 146.838 224.643 147.045 224.69C147.245 224.737 147.508 224.767 147.835 224.78L147.835 224.78L147.835 225.31L143.295 225.31L143.295 224.78C143.622 224.767 143.885 224.737 144.085 224.69C144.285 224.637 144.442 224.54 144.555 224.4C144.668 224.26 144.742 224.06 144.775 223.8C144.815 223.547 144.835 223.2 144.835 222.76L144.835 222.76L144.835 216.27L144.695 216.27L140.605 225.45L140.295 225.45L136.285 216.27L136.225 216.27L136.225 222.66C136.225 223.127 136.245 223.497 136.285 223.77C136.318 224.043 136.388 224.253 136.495 224.4C136.602 224.547 136.758 224.643 136.965 224.69C137.165 224.737 137.428 224.767 137.755 224.78L137.755 224.78L137.755 225.31L133.845 225.31L133.845 224.78C134.172 224.767 134.435 224.737 134.635 224.69C134.835 224.637 134.992 224.54 135.105 224.4C135.218 224.26 135.292 224.06 135.325 223.8C135.365 223.547 135.385 223.2 135.385 222.76L135.385 222.76L135.385 217.08C135.385 216.687 135.368 216.363 135.335 216.11C135.302 215.85 135.238 215.647 135.145 215.5C135.045 215.347 134.902 215.24 134.715 215.18C134.528 215.12 134.285 215.08 133.985 215.06L133.985 215.06L133.985 214.53L137.335 214.53L140.855 222.8ZM152.115 215.37L152.115 219.39C152.622 219.39 153.045 219.36 153.385 219.3C153.725 219.24 153.995 219.143 154.195 219.01C154.395 218.877 154.538 218.71 154.625 218.51C154.718 218.303 154.765 218.06 154.765 217.78L154.765 217.78L155.255 217.78L155.255 221.6L154.765 221.6C154.765 221.32 154.725 221.077 154.645 220.87C154.565 220.663 154.425 220.493 154.225 220.36C154.025 220.227 153.755 220.123 153.415 220.05C153.068 219.983 152.635 219.95 152.115 219.95L152.115 219.95L152.115 223.11C152.115 223.417 152.152 223.67 152.225 223.87C152.298 224.077 152.428 224.24 152.615 224.36C152.795 224.487 153.035 224.577 153.335 224.63C153.635 224.683 154.002 224.71 154.435 224.71L154.435 224.71C154.935 224.71 155.355 224.673 155.695 224.6C156.042 224.533 156.332 224.417 156.565 224.25C156.798 224.077 156.985 223.853 157.125 223.58C157.265 223.307 157.382 222.963 157.475 222.55L157.475 222.55L158.005 222.55L157.795 225.31L149.105 225.31L149.105 224.78C149.432 224.767 149.695 224.737 149.895 224.69C150.095 224.643 150.252 224.567 150.365 224.46C150.478 224.347 150.552 224.187 150.585 223.98C150.625 223.773 150.645 223.507 150.645 223.18L150.645 223.18L150.645 216.66C150.645 216.333 150.628 216.07 150.595 215.87C150.562 215.67 150.495 215.51 150.395 215.39C150.302 215.277 150.162 215.197 149.975 215.15C149.788 215.11 149.545 215.08 149.245 215.06L149.245 215.06L149.245 214.53L157.335 214.53L157.465 216.99L156.975 216.99C156.915 216.617 156.822 216.313 156.695 216.08C156.575 215.84 156.405 215.65 156.185 215.51C155.965 215.37 155.685 215.273 155.345 215.22C155.012 215.16 154.608 215.13 154.135 215.13L154.135 215.13L152.355 215.13C152.195 215.13 152.115 215.21 152.115 215.37L152.115 215.37ZM169.195 225.45L168.355 225.45L161.705 216.69L161.645 216.69L161.645 222.66C161.645 223.127 161.662 223.497 161.695 223.77C161.728 224.043 161.795 224.253 161.895 224.4C161.995 224.547 162.135 224.643 162.315 224.69C162.495 224.737 162.735 224.767 163.035 224.78L163.035 224.78L163.035 225.31L159.265 225.31L159.265 224.78C159.592 224.767 159.855 224.737 160.055 224.69C160.262 224.637 160.418 224.54 160.525 224.4C160.638 224.26 160.715 224.06 160.755 223.8C160.788 223.547 160.805 223.2 160.805 222.76L160.805 222.76L160.805 217.08C160.805 216.687 160.788 216.363 160.755 216.11C160.728 215.85 160.665 215.647 160.565 215.5C160.465 215.347 160.322 215.24 160.135 215.18C159.948 215.12 159.705 215.08 159.405 215.06L159.405 215.06L159.405 214.53L162.185 214.53L168.295 222.69L168.355 222.69L168.355 217.18C168.355 216.72 168.338 216.353 168.305 216.08C168.272 215.8 168.205 215.587 168.105 215.44C168.012 215.293 167.875 215.197 167.695 215.15C167.508 215.103 167.265 215.073 166.965 215.06L166.965 215.06L166.965 214.53L170.735 214.53L170.735 215.06C170.408 215.073 170.145 215.103 169.945 215.15C169.745 215.203 169.588 215.3 169.475 215.44C169.362 215.58 169.288 215.78 169.255 216.04C169.215 216.3 169.195 216.647 169.195 217.08L169.195 217.08L169.195 225.45ZM172.485 217.48L172.165 217.11C172.592 216.783 172.898 216.473 173.085 216.18C173.265 215.88 173.355 215.553 173.355 215.2L173.355 215.2C173.235 215.273 173.095 215.31 172.935 215.31L172.935 215.31C172.722 215.31 172.545 215.24 172.405 215.1C172.272 214.953 172.205 214.767 172.205 214.54L172.205 214.54C172.205 214.293 172.292 214.09 172.465 213.93C172.638 213.77 172.868 213.69 173.155 213.69L173.155 213.69C173.822 213.69 174.155 214.13 174.155 215.01L174.155 215.01C174.155 215.25 174.125 215.467 174.065 215.66C174.012 215.86 173.922 216.057 173.795 216.25C173.668 216.437 173.498 216.63 173.285 216.83C173.072 217.03 172.805 217.247 172.485 217.48L172.485 217.48ZM175.845 225.16L175.635 222.02L176.155 222.02C176.222 222.44 176.345 222.817 176.525 223.15C176.705 223.49 176.932 223.777 177.205 224.01C177.485 224.243 177.805 224.423 178.165 224.55C178.525 224.677 178.915 224.74 179.335 224.74L179.335 224.74C180.022 224.74 180.565 224.577 180.965 224.25C181.372 223.923 181.575 223.48 181.575 222.92L181.575 222.92C181.575 222.687 181.535 222.47 181.455 222.27C181.375 222.077 181.242 221.887 181.055 221.7C180.868 221.52 180.618 221.343 180.305 221.17C179.992 220.99 179.598 220.797 179.125 220.59L179.125 220.59C178.545 220.337 178.058 220.093 177.665 219.86C177.272 219.627 176.958 219.387 176.725 219.14C176.492 218.887 176.328 218.617 176.235 218.33C176.135 218.043 176.085 217.72 176.085 217.36L176.085 217.36C176.085 216.927 176.162 216.53 176.315 216.17C176.468 215.803 176.685 215.487 176.965 215.22C177.245 214.953 177.575 214.75 177.955 214.61C178.342 214.463 178.762 214.39 179.215 214.39L179.215 214.39C179.628 214.39 180.012 214.457 180.365 214.59C180.718 214.717 181.078 214.927 181.445 215.22L181.445 215.22L181.805 214.59L182.135 214.59L182.285 217.37L181.765 217.37C181.545 216.603 181.222 216.033 180.795 215.66C180.368 215.287 179.858 215.1 179.265 215.1L179.265 215.1C178.692 215.1 178.238 215.24 177.905 215.52C177.565 215.8 177.395 216.18 177.395 216.66L177.395 216.66C177.395 216.88 177.435 217.083 177.515 217.27C177.588 217.45 177.708 217.62 177.875 217.78C178.042 217.947 178.262 218.11 178.535 218.27C178.802 218.437 179.138 218.61 179.545 218.79L179.545 218.79C180.232 219.097 180.805 219.383 181.265 219.65C181.718 219.917 182.082 220.18 182.355 220.44C182.628 220.707 182.818 220.987 182.925 221.28C183.038 221.58 183.095 221.91 183.095 222.27L183.095 222.27C183.095 222.737 183.002 223.167 182.815 223.56C182.628 223.953 182.368 224.29 182.035 224.57C181.695 224.85 181.292 225.067 180.825 225.22C180.358 225.373 179.845 225.45 179.285 225.45L179.285 225.45C178.758 225.45 178.282 225.377 177.855 225.23C177.428 225.077 176.995 224.823 176.555 224.47L176.555 224.47L176.165 225.16L175.845 225.16ZM198.655 216.76L198.655 223.08C198.655 223.44 198.672 223.727 198.705 223.94C198.745 224.16 198.818 224.33 198.925 224.45C199.032 224.563 199.185 224.643 199.385 224.69C199.585 224.737 199.848 224.767 200.175 224.78L200.175 224.78L200.175 225.31L195.645 225.31L195.645 224.78C195.972 224.767 196.235 224.737 196.435 224.69C196.635 224.643 196.792 224.567 196.905 224.46C197.012 224.347 197.085 224.187 197.125 223.98C197.165 223.773 197.185 223.507 197.185 223.18L197.185 223.18L197.185 220.14L191.515 220.14L191.515 223.08C191.515 223.44 191.532 223.727 191.565 223.94C191.605 224.16 191.678 224.33 191.785 224.45C191.892 224.563 192.045 224.643 192.245 224.69C192.445 224.737 192.708 224.767 193.035 224.78L193.035 224.78L193.035 225.31L188.505 225.31L188.505 224.78C188.832 224.767 189.095 224.737 189.295 224.69C189.495 224.643 189.652 224.567 189.765 224.46C189.872 224.347 189.945 224.187 189.985 223.98C190.025 223.773 190.045 223.507 190.045 223.18L190.045 223.18L190.045 216.66C190.045 216.333 190.028 216.07 189.995 215.87C189.962 215.67 189.895 215.51 189.795 215.39C189.695 215.277 189.552 215.197 189.365 215.15C189.178 215.11 188.938 215.08 188.645 215.06L188.645 215.06L188.645 214.53L192.895 214.53L192.895 215.06C192.595 215.073 192.355 215.103 192.175 215.15C191.995 215.197 191.855 215.28 191.755 215.4C191.655 215.52 191.588 215.687 191.555 215.9C191.528 216.113 191.515 216.4 191.515 216.76L191.515 216.76L191.515 219.44L197.185 219.44L197.185 216.66C197.185 216.333 197.168 216.07 197.135 215.87C197.102 215.67 197.035 215.51 196.935 215.39C196.835 215.277 196.692 215.197 196.505 215.15C196.318 215.11 196.078 215.08 195.785 215.06L195.785 215.06L195.785 214.53L200.035 214.53L200.035 215.06C199.735 215.073 199.495 215.103 199.315 215.15C199.135 215.197 198.995 215.28 198.895 215.4C198.795 215.52 198.728 215.687 198.695 215.9C198.668 216.113 198.655 216.4 198.655 216.76L198.655 216.76ZM204.465 215.37L204.465 219.39C204.965 219.39 205.385 219.36 205.725 219.3C206.065 219.24 206.335 219.143 206.535 219.01C206.742 218.877 206.888 218.71 206.975 218.51C207.062 218.303 207.105 218.06 207.105 217.78L207.105 217.78L207.595 217.78L207.595 221.6L207.105 221.6C207.105 221.32 207.065 221.077 206.985 220.87C206.905 220.663 206.765 220.493 206.565 220.36C206.365 220.227 206.095 220.123 205.755 220.05C205.415 219.983 204.985 219.95 204.465 219.95L204.465 219.95L204.465 223.11C204.465 223.417 204.502 223.67 204.575 223.87C204.648 224.077 204.775 224.24 204.955 224.36C205.142 224.487 205.382 224.577 205.675 224.63C205.975 224.683 206.345 224.71 206.785 224.71L206.785 224.71C207.278 224.71 207.698 224.673 208.045 224.6C208.392 224.533 208.682 224.417 208.915 224.25C209.148 224.077 209.335 223.853 209.475 223.58C209.615 223.307 209.732 222.963 209.825 222.55L209.825 222.55L210.355 222.55L210.145 225.31L201.455 225.31L201.455 224.78C201.782 224.767 202.045 224.737 202.245 224.69C202.445 224.643 202.602 224.567 202.715 224.46C202.822 224.347 202.895 224.187 202.935 223.98C202.975 223.773 202.995 223.507 202.995 223.18L202.995 223.18L202.995 216.66C202.995 216.333 202.978 216.07 202.945 215.87C202.912 215.67 202.845 215.51 202.745 215.39C202.645 215.277 202.502 215.197 202.315 215.15C202.128 215.11 201.888 215.08 201.595 215.06L201.595 215.06L201.595 214.53L209.685 214.53L209.805 216.99L209.315 216.99C209.262 216.617 209.172 216.313 209.045 216.08C208.918 215.84 208.745 215.65 208.525 215.51C208.305 215.37 208.028 215.273 207.695 215.22C207.362 215.16 206.955 215.13 206.475 215.13L206.475 215.13L204.695 215.13C204.542 215.13 204.465 215.21 204.465 215.37L204.465 215.37ZM218.395 222.92L217.815 221.4L214.075 221.4C213.922 221.787 213.788 222.127 213.675 222.42C213.562 222.713 213.472 222.967 213.405 223.18C213.332 223.393 213.282 223.577 213.255 223.73C213.228 223.877 213.215 223.997 213.215 224.09L213.215 224.09C213.215 224.35 213.298 224.53 213.465 224.63C213.632 224.73 213.912 224.78 214.305 224.78L214.305 224.78L214.305 225.31L210.905 225.31L210.905 224.78C211.118 224.753 211.302 224.717 211.455 224.67C211.608 224.623 211.742 224.557 211.855 224.47C211.975 224.383 212.078 224.273 212.165 224.14C212.258 224.007 212.345 223.84 212.425 223.64L212.425 223.64L216.065 214.53L216.665 214.53L219.845 222.43C220.058 222.95 220.245 223.367 220.405 223.68C220.565 223.993 220.718 224.23 220.865 224.39C221.018 224.543 221.182 224.643 221.355 224.69C221.528 224.737 221.735 224.76 221.975 224.76L221.975 224.76L221.975 225.31L217.415 225.31L217.415 224.76C217.908 224.76 218.248 224.713 218.435 224.62C218.622 224.527 218.715 224.373 218.715 224.16L218.715 224.16C218.715 224.067 218.708 223.98 218.695 223.9C218.688 223.82 218.675 223.733 218.655 223.64C218.628 223.547 218.595 223.443 218.555 223.33C218.508 223.21 218.455 223.073 218.395 222.92L218.395 222.92ZM215.995 216.57L214.355 220.7L217.555 220.7L215.995 216.57ZM231.675 222.55L231.465 225.31L222.425 225.31L222.425 224.78C222.752 224.767 223.015 224.737 223.215 224.69C223.415 224.643 223.572 224.567 223.685 224.46C223.798 224.347 223.872 224.187 223.905 223.98C223.945 223.773 223.965 223.507 223.965 223.18L223.965 223.18L223.965 216.66C223.965 216.333 223.948 216.07 223.915 215.87C223.882 215.67 223.815 215.51 223.715 215.39C223.622 215.277 223.482 215.197 223.295 215.15C223.108 215.11 222.865 215.08 222.565 215.06L222.565 215.06L222.565 214.53L226.815 214.53L226.815 215.06C226.522 215.073 226.282 215.103 226.095 215.15C225.915 215.197 225.775 215.28 225.675 215.4C225.582 215.52 225.518 215.687 225.485 215.9C225.452 216.113 225.435 216.4 225.435 216.76L225.435 216.76L225.435 222.79C225.435 223.183 225.475 223.503 225.555 223.75C225.635 223.997 225.768 224.187 225.955 224.32C226.148 224.46 226.405 224.553 226.725 224.6C227.038 224.653 227.438 224.68 227.925 224.68L227.925 224.68C228.458 224.68 228.905 224.65 229.265 224.59C229.632 224.53 229.938 224.423 230.185 224.27C230.432 224.117 230.628 223.9 230.775 223.62C230.922 223.347 231.045 222.99 231.145 222.55L231.145 222.55L231.675 222.55ZM241.305 214.53L241.445 217.2L240.875 217.2C240.848 216.8 240.782 216.467 240.675 216.2C240.575 215.927 240.428 215.713 240.235 215.56C240.048 215.407 239.808 215.297 239.515 215.23C239.228 215.163 238.885 215.13 238.485 215.13L238.485 215.13C238.138 215.13 237.858 215.137 237.645 215.15C237.438 215.163 237.278 215.19 237.165 215.23C237.052 215.27 236.978 215.313 236.945 215.36C236.912 215.413 236.895 215.483 236.895 215.57L236.895 215.57L236.895 223.06C236.895 223.353 236.918 223.61 236.965 223.83C237.005 224.043 237.088 224.217 237.215 224.35C237.342 224.483 237.525 224.587 237.765 224.66C237.998 224.727 238.312 224.767 238.705 224.78L238.705 224.78L238.705 225.31L233.415 225.31L233.415 224.78C233.808 224.767 234.125 224.727 234.365 224.66C234.605 224.587 234.788 224.483 234.915 224.35C235.042 224.217 235.125 224.043 235.165 223.83C235.212 223.61 235.235 223.353 235.235 223.06L235.235 223.06L235.235 215.57C235.235 215.483 235.218 215.413 235.185 215.36C235.152 215.313 235.085 215.27 234.985 215.23C234.892 215.19 234.755 215.163 234.575 215.15C234.395 215.137 234.158 215.13 233.865 215.13L233.865 215.13C233.498 215.13 233.158 215.143 232.845 215.17C232.532 215.203 232.262 215.287 232.035 215.42C231.808 215.553 231.625 215.76 231.485 216.04C231.345 216.32 231.268 216.707 231.255 217.2L231.255 217.2L230.735 217.2L230.735 214.53L241.305 214.53ZM252.465 216.76L252.465 223.08C252.465 223.44 252.485 223.727 252.525 223.94C252.558 224.16 252.632 224.33 252.745 224.45C252.852 224.563 253.005 224.643 253.205 224.69C253.405 224.737 253.668 224.767 253.995 224.78L253.995 224.78L253.995 225.31L249.455 225.31L249.455 224.78C249.782 224.767 250.045 224.737 250.245 224.69C250.445 224.643 250.602 224.567 250.715 224.46C250.828 224.347 250.905 224.187 250.945 223.98C250.978 223.773 250.995 223.507 250.995 223.18L250.995 223.18L250.995 220.14L245.325 220.14L245.325 223.08C245.325 223.44 245.345 223.727 245.385 223.94C245.418 224.16 245.492 224.33 245.605 224.45C245.712 224.563 245.865 224.643 246.065 224.69C246.265 224.737 246.528 224.767 246.855 224.78L246.855 224.78L246.855 225.31L242.315 225.31L242.315 224.78C242.642 224.767 242.905 224.737 243.105 224.69C243.305 224.643 243.462 224.567 243.575 224.46C243.688 224.347 243.765 224.187 243.805 223.98C243.838 223.773 243.855 223.507 243.855 223.18L243.855 223.18L243.855 216.66C243.855 216.333 243.838 216.07 243.805 215.87C243.772 215.67 243.708 215.51 243.615 215.39C243.515 215.277 243.372 215.197 243.185 215.15C242.998 215.11 242.755 215.08 242.455 215.06L242.455 215.06L242.455 214.53L246.715 214.53L246.715 215.06C246.415 215.073 246.175 215.103 245.995 215.15C245.808 215.197 245.668 215.28 245.575 215.4C245.475 215.52 245.408 215.687 245.375 215.9C245.342 216.113 245.325 216.4 245.325 216.76L245.325 216.76L245.325 219.44L250.995 219.44L250.995 216.66C250.995 216.333 250.978 216.07 250.945 215.87C250.912 215.67 250.848 215.51 250.755 215.39C250.655 215.277 250.512 215.197 250.325 215.15C250.138 215.11 249.895 215.08 249.595 215.06L249.595 215.06L249.595 214.53L253.855 214.53L253.855 215.06C253.555 215.073 253.315 215.103 253.135 215.15C252.948 215.197 252.808 215.28 252.715 215.4C252.615 215.52 252.548 215.687 252.515 215.9C252.482 216.113 252.465 216.4 252.465 216.76L252.465 216.76Z" fill="#8ec503" fill-rule="nonzero" opacity="0" stroke="none"/>
<path d="M82.09 171.18L82.09 171.18C80.85 171.18 79.79 171.37 78.91 171.75C78.0367 172.13 77.2967 172.727 76.69 173.54L76.69 173.54C75.93 174.527 75.3367 175.823 74.91 177.43C74.4767 179.043 74.26 180.81 74.26 182.73L74.26 182.73C74.26 184.53 74.45 186.217 74.83 187.79C75.21 189.357 75.7433 190.673 76.43 191.74L76.43 191.74C77.11 192.807 77.9367 193.587 78.91 194.08C79.89 194.573 81.1133 194.82 82.58 194.82L82.58 194.82C87.14 194.82 89.7867 192.68 90.52 188.4L90.52 188.4L92.61 188.4C91.47 194.3 88 197.25 82.2 197.25L82.2 197.25C78.7067 197.25 75.92 196.237 73.84 194.21L73.84 194.21C72.6 192.997 71.65 191.463 70.99 189.61C70.33 187.763 70 185.713 70 183.46L70 183.46C70 180.9 70.42 178.58 71.26 176.5C72.0933 174.427 73.27 172.767 74.79 171.52L74.79 171.52C76.7167 169.927 79.2633 169.13 82.43 169.13L82.43 169.13C84.0033 169.13 85.2833 169.333 86.27 169.74C87.2567 170.147 88.23 170.867 89.19 171.9L89.19 171.9L89.95 169.51L92.04 169.51L92.04 177.91L89.73 177.91C89.37 175.677 88.5533 173.997 87.28 172.87C86 171.743 84.27 171.18 82.09 171.18ZM95.43 192.42L95.43 192.42C95.43 190.447 96.3533 188.89 98.2 187.75C100.047 186.61 103.113 185.723 107.4 185.09L107.4 185.09C107.293 183.597 107.153 182.43 106.98 181.59C106.8 180.757 106.57 180.087 106.29 179.58L106.29 179.58C105.937 178.92 105.443 178.433 104.81 178.12C104.177 177.8 103.493 177.64 102.76 177.64L102.76 177.64C102.053 177.64 101.413 177.767 100.84 178.02C100.273 178.273 99.8867 178.617 99.68 179.05L99.68 179.05C100.033 179.303 100.293 179.633 100.46 180.04C100.627 180.44 100.71 180.82 100.71 181.18L100.71 181.18C100.71 181.813 100.5 182.313 100.08 182.68C99.66 183.047 99.1467 183.23 98.54 183.23L98.54 183.23C97.9333 183.23 97.4333 183.027 97.04 182.62C96.6467 182.213 96.45 181.643 96.45 180.91L96.45 180.91C96.45 179.843 96.8167 178.943 97.55 178.21C98.29 177.477 99.2233 176.92 100.35 176.54C101.477 176.16 102.61 175.97 103.75 175.97L103.75 175.97C104.79 175.97 105.747 176.127 106.62 176.44C107.493 176.76 108.233 177.223 108.84 177.83L108.84 177.83C110.413 179.403 111.2 182.19 111.2 186.19L111.2 186.19L111.2 191.7C111.2 192.94 111.28 193.803 111.44 194.29C111.607 194.77 111.97 195.01 112.53 195.01L112.53 195.01L114.24 195.01L114.24 196.15C112.413 196.883 110.993 197.25 109.98 197.25L109.98 197.25C109.193 197.25 108.667 196.963 108.4 196.39C108.133 195.823 108 194.73 108 193.11L108 193.11L107.85 193.11C107.063 194.403 106.027 195.417 104.74 196.15C103.447 196.883 102.053 197.25 100.56 197.25L100.56 197.25C98.96 197.25 97.7033 196.82 96.79 195.96C95.8833 195.1 95.43 193.92 95.43 192.42ZM102.15 195.05L102.15 195.05C102.863 195.05 103.603 194.863 104.37 194.49C105.143 194.123 105.797 193.613 106.33 192.96L106.33 192.96C106.737 192.453 107.033 191.85 107.22 191.15C107.413 190.457 107.51 189.64 107.51 188.7L107.51 188.7C107.51 188.267 107.497 187.843 107.47 187.43C107.443 187.01 107.407 186.61 107.36 186.23L107.36 186.23C105.307 186.637 103.697 187.073 102.53 187.54C101.363 188.007 100.54 188.563 100.06 189.21C99.58 189.857 99.34 190.663 99.34 191.63L99.34 191.63C99.34 192.717 99.5867 193.557 100.08 194.15C100.573 194.75 101.263 195.05 102.15 195.05ZM118.42 178.25L114.73 178.25L114.73 176.88L118.42 176.35L118.91 171.56L122.1 171.11L122.1 176.35L126.97 176.35L126.97 178.25L122.1 178.25L122.1 191.82C122.1 192.68 122.113 193.267 122.14 193.58C122.167 193.9 122.217 194.16 122.29 194.36L122.29 194.36C122.37 194.54 122.51 194.66 122.71 194.72C122.91 194.787 123.24 194.82 123.7 194.82L123.7 194.82L126.36 194.82L126.36 195.92C125.14 196.373 124.07 196.71 123.15 196.93C122.223 197.143 121.48 197.25 120.92 197.25L120.92 197.25C119.78 197.25 119.047 196.78 118.72 195.84L118.72 195.84C118.62 195.54 118.543 195.15 118.49 194.67C118.443 194.183 118.42 193.473 118.42 192.54L118.42 192.54L118.42 178.25ZM128.79 192.42L128.79 192.42C128.79 190.447 129.713 188.89 131.56 187.75C133.413 186.61 136.48 185.723 140.76 185.09L140.76 185.09C140.66 183.597 140.52 182.43 140.34 181.59C140.167 180.757 139.94 180.087 139.66 179.58L139.66 179.58C139.307 178.92 138.813 178.433 138.18 178.12C137.547 177.8 136.86 177.64 136.12 177.64L136.12 177.64C135.413 177.64 134.773 177.767 134.2 178.02C133.633 178.273 133.25 178.617 133.05 179.05L133.05 179.05C133.403 179.303 133.66 179.633 133.82 180.04C133.987 180.44 134.07 180.82 134.07 181.18L134.07 181.18C134.07 181.813 133.86 182.313 133.44 182.68C133.027 183.047 132.517 183.23 131.91 183.23L131.91 183.23C131.297 183.23 130.793 183.027 130.4 182.62C130.013 182.213 129.82 181.643 129.82 180.91L129.82 180.91C129.82 179.843 130.187 178.943 130.92 178.21C131.653 177.477 132.583 176.92 133.71 176.54C134.837 176.16 135.97 175.97 137.11 175.97L137.11 175.97C138.15 175.97 139.107 176.127 139.98 176.44C140.853 176.76 141.593 177.223 142.2 177.83L142.2 177.83C143.773 179.403 144.56 182.19 144.56 186.19L144.56 186.19L144.56 191.7C144.56 192.94 144.643 193.803 144.81 194.29C144.97 194.77 145.33 195.01 145.89 195.01L145.89 195.01L147.6 195.01L147.6 196.15C145.773 196.883 144.353 197.25 143.34 197.25L143.34 197.25C142.56 197.25 142.037 196.963 141.77 196.39C141.503 195.823 141.37 194.73 141.37 193.11L141.37 193.11L141.22 193.11C140.433 194.403 139.393 195.417 138.1 196.15C136.807 196.883 135.413 197.25 133.92 197.25L133.92 197.25C132.327 197.25 131.073 196.82 130.16 195.96C129.247 195.1 128.79 193.92 128.79 192.42ZM135.52 195.05L135.52 195.05C136.227 195.05 136.967 194.863 137.74 194.49C138.513 194.123 139.167 193.613 139.7 192.96L139.7 192.96C140.1 192.453 140.397 191.85 140.59 191.15C140.777 190.457 140.87 189.64 140.87 188.7L140.87 188.7C140.87 188.267 140.86 187.843 140.84 187.43C140.813 187.01 140.773 186.61 140.72 186.23L140.72 186.23C138.667 186.637 137.06 187.073 135.9 187.54C134.733 188.007 133.91 188.563 133.43 189.21C132.943 189.857 132.7 190.663 132.7 191.63L132.7 191.63C132.7 192.717 132.947 193.557 133.44 194.15C133.94 194.75 134.633 195.05 135.52 195.05ZM148.82 195.31L151.74 194.59L151.74 169.51L148.82 168.79L148.82 167.23L155.43 167.23L155.43 194.59L158.35 195.31L158.35 196.87L148.82 196.87L148.82 195.31ZM167.02 194.06L167.02 201.43L170.7 202.15L170.7 203.71L160.41 203.71L160.41 202.15L163.33 201.43L163.33 178.63L160.41 177.91L160.41 176.35L165.88 176.35L166.45 179.28C167.257 178.013 168.173 177.143 169.2 176.67C170.227 176.203 171.387 175.97 172.68 175.97L172.68 175.97C173.973 175.97 175.143 176.16 176.19 176.54C177.243 176.92 178.1 177.527 178.76 178.36L178.76 178.36C179.52 179.327 180.12 180.487 180.56 181.84C181.007 183.193 181.23 184.657 181.23 186.23L181.23 186.23C181.23 187.85 180.983 189.377 180.49 190.81C179.997 192.243 179.33 193.44 178.49 194.4L178.49 194.4C177.077 196.047 175.04 196.87 172.38 196.87L172.38 196.87C171.287 196.87 170.303 196.66 169.43 196.24C168.557 195.827 167.753 195.1 167.02 194.06L167.02 194.06ZM166.98 186.27L166.98 186.27C166.98 187.763 167.093 189.067 167.32 190.18C167.547 191.293 167.877 192.193 168.31 192.88L168.31 192.88C168.717 193.513 169.217 194.007 169.81 194.36C170.403 194.713 171.17 194.89 172.11 194.89L172.11 194.89C172.97 194.89 173.723 194.733 174.37 194.42C175.017 194.1 175.543 193.663 175.95 193.11L175.95 193.11C176.403 192.477 176.733 191.59 176.94 190.45C177.14 189.31 177.24 188.003 177.24 186.53L177.24 186.53C177.24 185.037 177.127 183.747 176.9 182.66C176.673 181.567 176.343 180.667 175.91 179.96L175.91 179.96C175.503 179.3 175.003 178.8 174.41 178.46C173.817 178.12 173.037 177.95 172.07 177.95L172.07 177.95C171.21 177.95 170.457 178.093 169.81 178.38C169.163 178.673 168.663 179.11 168.31 179.69L168.31 179.69C167.903 180.377 167.58 181.27 167.34 182.37C167.1 183.477 166.98 184.777 166.98 186.27ZM184.42 192.42L184.42 192.42C184.42 190.447 185.347 188.89 187.2 187.75C189.047 186.61 192.11 185.723 196.39 185.09L196.39 185.09C196.29 183.597 196.15 182.43 195.97 181.59C195.797 180.757 195.57 180.087 195.29 179.58L195.29 179.58C194.937 178.92 194.443 178.433 193.81 178.12C193.177 177.8 192.493 177.64 191.76 177.64L191.76 177.64C191.047 177.64 190.407 177.767 189.84 178.02C189.267 178.273 188.88 178.617 188.68 179.05L188.68 179.05C189.033 179.303 189.293 179.633 189.46 180.04C189.62 180.44 189.7 180.82 189.7 181.18L189.7 181.18C189.7 181.813 189.493 182.313 189.08 182.68C188.66 183.047 188.147 183.23 187.54 183.23L187.54 183.23C186.933 183.23 186.433 183.027 186.04 182.62C185.647 182.213 185.45 181.643 185.45 180.91L185.45 180.91C185.45 179.843 185.817 178.943 186.55 178.21C187.283 177.477 188.213 176.92 189.34 176.54C190.467 176.16 191.6 175.97 192.74 175.97L192.74 175.97C193.78 175.97 194.737 176.127 195.61 176.44C196.483 176.76 197.227 177.223 197.84 177.83L197.84 177.83C199.407 179.403 200.19 182.19 200.19 186.19L200.19 186.19L200.19 191.7C200.19 192.94 200.273 193.803 200.44 194.29C200.607 194.77 200.967 195.01 201.52 195.01L201.52 195.01L203.23 195.01L203.23 196.15C201.41 196.883 199.993 197.25 198.98 197.25L198.98 197.25C198.193 197.25 197.667 196.963 197.4 196.39C197.133 195.823 197 194.73 197 193.11L197 193.11L196.85 193.11C196.063 194.403 195.023 195.417 193.73 196.15C192.437 196.883 191.043 197.25 189.55 197.25L189.55 197.25C187.957 197.25 186.703 196.82 185.79 195.96C184.877 195.1 184.42 193.92 184.42 192.42ZM191.15 195.05L191.15 195.05C191.857 195.05 192.597 194.863 193.37 194.49C194.143 194.123 194.797 193.613 195.33 192.96L195.33 192.96C195.737 192.453 196.033 191.85 196.22 191.15C196.413 190.457 196.51 189.64 196.51 188.7L196.51 188.7C196.51 188.267 196.497 187.843 196.47 187.43C196.443 187.01 196.403 186.61 196.35 186.23L196.35 186.23C194.303 186.637 192.697 187.073 191.53 187.54C190.363 188.007 189.54 188.563 189.06 189.21C188.58 189.857 188.34 190.663 188.34 191.63L188.34 191.63C188.34 192.717 188.587 193.557 189.08 194.15C189.573 194.75 190.263 195.05 191.15 195.05ZM226.72 171.18L226.72 171.18C225.473 171.18 224.413 171.37 223.54 171.75C222.667 172.13 221.927 172.727 221.32 173.54L221.32 173.54C220.56 174.527 219.963 175.823 219.53 177.43C219.103 179.043 218.89 180.81 218.89 182.73L218.89 182.73C218.89 184.53 219.08 186.217 219.46 187.79C219.84 189.357 220.37 190.673 221.05 191.74L221.05 191.74C221.737 192.807 222.567 193.587 223.54 194.08C224.52 194.573 225.743 194.82 227.21 194.82L227.21 194.82C231.77 194.82 234.417 192.68 235.15 188.4L235.15 188.4L237.24 188.4C236.1 194.3 232.63 197.25 226.83 197.25L226.83 197.25C223.337 197.25 220.55 196.237 218.47 194.21L218.47 194.21C217.23 192.997 216.28 191.463 215.62 189.61C214.96 187.763 214.63 185.713 214.63 183.46L214.63 183.46C214.63 180.9 215.05 178.58 215.89 176.5C216.723 174.427 217.9 172.767 219.42 171.52L219.42 171.52C221.347 169.927 223.893 169.13 227.06 169.13L227.06 169.13C228.627 169.13 229.907 169.333 230.9 169.74C231.887 170.147 232.86 170.867 233.82 171.9L233.82 171.9L234.58 169.51L236.67 169.51L236.67 177.91L234.35 177.91C233.997 175.677 233.18 173.997 231.9 172.87C230.62 171.743 228.893 171.18 226.72 171.18ZM239.67 195.31L242.6 194.59L242.6 169.51L239.67 168.79L239.67 167.23L246.29 167.23L246.29 194.59L249.21 195.31L249.21 196.87L239.67 196.87L239.67 195.31ZM254.61 194.59L254.61 178.63L251.68 177.91L251.68 176.35L258.29 176.35L258.29 194.59L261.22 195.31L261.22 196.87L251.68 196.87L251.68 195.31L254.61 194.59ZM254.08 170.23L254.08 170.23C254.08 169.497 254.293 168.913 254.72 168.48C255.153 168.053 255.723 167.84 256.43 167.84L256.43 167.84C257.163 167.84 257.747 168.053 258.18 168.48C258.613 168.913 258.83 169.497 258.83 170.23L258.83 170.23C258.83 170.943 258.613 171.513 258.18 171.94C257.747 172.373 257.163 172.59 256.43 172.59L256.43 172.59C255.697 172.59 255.12 172.38 254.7 171.96C254.287 171.54 254.08 170.963 254.08 170.23ZM263.54 195.31L266.46 194.59L266.46 178.63L263.54 177.91L263.54 176.35L269.01 176.35L269.85 180.15L270 180.15C270.76 178.857 271.787 177.837 273.08 177.09C274.367 176.343 275.747 175.97 277.22 175.97L277.22 175.97C279.32 175.97 280.877 176.653 281.89 178.02L281.89 178.02C282.397 178.733 282.757 179.727 282.97 181C283.19 182.28 283.3 184.01 283.3 186.19L283.3 186.19L283.3 194.59L286.22 195.31L286.22 196.87L277.07 196.87L277.07 195.31L279.61 194.59L279.61 186.12C279.61 184.473 279.567 183.243 279.48 182.43C279.393 181.617 279.233 180.983 279 180.53L279 180.53C278.7 179.923 278.263 179.46 277.69 179.14C277.123 178.827 276.447 178.67 275.66 178.67L275.66 178.67C274.193 178.67 272.927 179.137 271.86 180.07L271.86 180.07C270.82 181.01 270.25 182.467 270.15 184.44L270.15 184.44L270.15 194.59L272.7 195.31L272.7 196.87L263.54 196.87L263.54 195.31ZM291.35 194.59L291.35 178.63L288.43 177.91L288.43 176.35L295.04 176.35L295.04 194.59L297.97 195.31L297.97 196.87L288.43 196.87L288.43 195.31L291.35 194.59ZM290.82 170.23L290.82 170.23C290.82 169.497 291.037 168.913 291.47 168.48C291.897 168.053 292.467 167.84 293.18 167.84L293.18 167.84C293.913 167.84 294.497 168.053 294.93 168.48C295.357 168.913 295.57 169.497 295.57 170.23L295.57 170.23C295.57 170.943 295.357 171.513 294.93 171.94C294.497 172.373 293.913 172.59 293.18 172.59L293.18 172.59C292.447 172.59 291.87 172.38 291.45 171.96C291.03 171.54 290.82 170.963 290.82 170.23ZM310.39 175.97L310.39 175.97C311.863 175.97 313.137 176.217 314.21 176.71C315.29 177.203 316.127 177.893 316.72 178.78C317.313 179.667 317.61 180.707 317.61 181.9L317.61 181.9C317.61 182.833 317.413 183.553 317.02 184.06C316.627 184.567 316.04 184.82 315.26 184.82L315.26 184.82C314.547 184.82 313.98 184.62 313.56 184.22C313.147 183.813 312.94 183.267 312.94 182.58L312.94 182.58C312.94 181.947 313.11 181.403 313.45 180.95C313.79 180.49 314.253 180.173 314.84 180L314.84 180C314.46 179.267 313.92 178.733 313.22 178.4C312.527 178.073 311.66 177.91 310.62 177.91L310.62 177.91C308.54 177.91 307.027 178.587 306.08 179.94C305.127 181.293 304.65 183.403 304.65 186.27L304.65 186.27C304.65 187.51 304.733 188.58 304.9 189.48C305.067 190.38 305.313 191.147 305.64 191.78L305.64 191.78C306.147 192.713 306.82 193.433 307.66 193.94C308.493 194.447 309.48 194.7 310.62 194.7L310.62 194.7C311.787 194.7 312.9 194.447 313.96 193.94C315.027 193.433 315.94 192.713 316.7 191.78L316.7 191.78L317.84 192.69C316.827 194.237 315.66 195.383 314.34 196.13C313.027 196.877 311.483 197.25 309.71 197.25L309.71 197.25C307.937 197.25 306.397 196.89 305.09 196.17C303.783 195.443 302.763 194.383 302.03 192.99L302.03 192.99C301.117 191.297 300.66 189.247 300.66 186.84L300.66 186.84C300.66 184.633 301.06 182.72 301.86 181.1C302.66 179.48 303.793 178.22 305.26 177.32C306.733 176.42 308.443 175.97 310.39 175.97Z" fill="#0071bc" fill-rule="nonzero" opacity="0" stroke="none"/>
<g opacity="1">
<path d="M64.68 168.822C64.68 166.35 65.238 164.136 66.354 162.18C67.47 160.224 68.994 158.7 70.926 157.608C72.858 156.516 75.024 155.97 77.424 155.97C80.232 155.97 82.692 156.69 84.804 158.13C86.916 159.57 88.392 161.562 89.232 164.106L83.436 164.106C82.86 162.906 82.05 162.006 81.006 161.406C79.962 160.806 78.756 160.506 77.388 160.506C75.924 160.506 74.622 160.848 73.482 161.532C72.342 162.216 71.454 163.182 70.818 164.43C70.182 165.678 69.864 167.142 69.864 168.822C69.864 170.478 70.182 171.936 70.818 173.196C71.454 174.456 72.342 175.428 73.482 176.112C74.622 176.796 75.924 177.138 77.388 177.138C78.756 177.138 79.962 176.832 81.006 176.22C82.05 175.608 82.86 174.702 83.436 173.502L89.232 173.502C88.392 176.07 86.922 178.068 84.822 179.496C82.722 180.924 80.256 181.638 77.424 181.638C75.024 181.638 72.858 181.092 70.926 180C68.994 178.908 67.47 177.39 66.354 175.446C65.238 173.502 64.68 171.294 64.68 168.822Z" fill="#0071bc" fill-rule="nonzero" opacity="1" stroke="none"/>
<path d="M92.256 171.378C92.256 169.362 92.658 167.574 93.462 166.014C94.266 164.454 95.358 163.254 96.738 162.414C98.118 161.574 99.66 161.154 101.364 161.154C102.852 161.154 104.154 161.454 105.27 162.054C106.386 162.654 107.28 163.41 107.952 164.322L107.952 161.478L113.028 161.478L113.028 181.422L107.952 181.422L107.952 178.506C107.304 179.442 106.41 180.216 105.27 180.828C104.13 181.44 102.816 181.746 101.328 181.746C99.648 181.746 98.118 181.314 96.738 180.45C95.358 179.586 94.266 178.368 93.462 176.796C92.658 175.224 92.256 173.418 92.256 171.378ZM107.952 171.45C107.952 170.226 107.712 169.176 107.232 168.3C106.752 167.424 106.104 166.752 105.288 166.284C104.472 165.816 103.596 165.582 102.66 165.582C101.724 165.582 100.86 165.81 100.068 166.266C99.276 166.722 98.634 167.388 98.142 168.264C97.65 169.14 97.404 170.178 97.404 171.378C97.404 172.578 97.65 173.628 98.142 174.528C98.634 175.428 99.282 176.118 100.086 176.598C100.89 177.078 101.748 177.318 102.66 177.318C103.596 177.318 104.472 177.084 105.288 176.616C106.104 176.148 106.752 175.476 107.232 174.6C107.712 173.724 107.952 172.674 107.952 171.45Z" fill="#0071bc" fill-rule="nonzero" opacity="1" stroke="none"/>
<path d="M123.828 165.618L123.828 175.266C123.828 175.938 123.99 176.424 124.314 176.724C124.638 177.024 125.184 177.174 125.952 177.174L128.292 177.174L128.292 181.422L125.124 181.422C120.876 181.422 118.752 179.358 118.752 175.23L118.752 165.618L116.376 165.618L116.376 161.478L118.752 161.478L118.752 156.546L123.828 156.546L123.828 161.478L128.292 161.478L128.292 165.618L123.828 165.618Z" fill="#0071bc" fill-rule="nonzero" opacity="1" stroke="none"/>
<path d="M130.632 171.378C130.632 169.362 131.034 167.574 131.838 166.014C132.642 164.454 133.734 163.254 135.114 162.414C136.494 161.574 138.036 161.154 139.74 161.154C141.228 161.154 142.53 161.454 143.646 162.054C144.762 162.654 145.656 163.41 146.328 164.322L146.328 161.478L151.404 161.478L151.404 181.422L146.328 181.422L146.328 178.506C145.68 179.442 144.786 180.216 143.646 180.828C142.506 181.44 141.192 181.746 139.704 181.746C138.024 181.746 136.494 181.314 135.114 180.45C133.734 179.586 132.642 178.368 131.838 176.796C131.034 175.224 130.632 173.418 130.632 171.378ZM146.328 171.45C146.328 170.226 146.088 169.176 145.608 168.3C145.128 167.424 144.48 166.752 143.664 166.284C142.848 165.816 141.972 165.582 141.036 165.582C140.1 165.582 139.236 165.81 138.444 166.266C137.652 166.722 137.01 167.388 136.518 168.264C136.026 169.14 135.78 170.178 135.78 171.378C135.78 172.578 136.026 173.628 136.518 174.528C137.01 175.428 137.658 176.118 138.462 176.598C139.266 177.078 140.124 177.318 141.036 177.318C141.972 177.318 142.848 177.084 143.664 176.616C144.48 176.148 145.128 175.476 145.608 174.6C146.088 173.724 146.328 172.674 146.328 171.45Z" fill="#0071bc" fill-rule="nonzero" opacity="1" stroke="none"/>
<path d="M161.376 154.782L161.376 181.422L156.336 181.422L156.336 154.782L161.376 154.782Z" fill="#0071bc" fill-rule="nonzero" opacity="1" stroke="none"/>
<path d="M171.384 164.358C172.032 163.446 172.926 162.684 174.066 162.072C175.206 161.46 176.508 161.154 177.972 161.154C179.676 161.154 181.218 161.574 182.598 162.414C183.978 163.254 185.07 164.448 185.874 165.996C186.678 167.544 187.08 169.338 187.08 171.378C187.08 173.418 186.678 175.224 185.874 176.796C185.07 178.368 183.978 179.586 182.598 180.45C181.218 181.314 179.676 181.746 177.972 181.746C176.508 181.746 175.218 181.446 174.102 180.846C172.986 180.246 172.08 179.49 171.384 178.578L171.384 190.926L166.344 190.926L166.344 161.478L171.384 161.478L171.384 164.358ZM181.932 171.378C181.932 170.178 181.686 169.14 181.194 168.264C180.702 167.388 180.054 166.722 179.25 166.266C178.446 165.81 177.576 165.582 176.64 165.582C175.728 165.582 174.87 165.816 174.066 166.284C173.262 166.752 172.614 167.43 172.122 168.318C171.63 169.206 171.384 170.25 171.384 171.45C171.384 172.65 171.63 173.694 172.122 174.582C172.614 175.47 173.262 176.148 174.066 176.616C174.87 177.084 175.728 177.318 176.64 177.318C177.576 177.318 178.446 177.078 179.25 176.598C180.054 176.118 180.702 175.434 181.194 174.546C181.686 173.658 181.932 172.602 181.932 171.378Z" fill="#0071bc" fill-rule="nonzero" opacity="1" stroke="none"/>
<path d="M189.456 171.378C189.456 169.362 189.858 167.574 190.662 166.014C191.466 164.454 192.558 163.254 193.938 162.414C195.318 161.574 196.86 161.154 198.564 161.154C200.052 161.154 201.354 161.454 202.47 162.054C203.586 162.654 204.48 163.41 205.152 164.322L205.152 161.478L210.228 161.478L210.228 181.422L205.152 181.422L205.152 178.506C204.504 179.442 203.61 180.216 202.47 180.828C201.33 181.44 200.016 181.746 198.528 181.746C196.848 181.746 195.318 181.314 193.938 180.45C192.558 179.586 191.466 178.368 190.662 176.796C189.858 175.224 189.456 173.418 189.456 171.378ZM205.152 171.45C205.152 170.226 204.912 169.176 204.432 168.3C203.952 167.424 203.304 166.752 202.488 166.284C201.672 165.816 200.796 165.582 199.86 165.582C198.924 165.582 198.06 165.81 197.268 166.266C196.476 166.722 195.834 167.388 195.342 168.264C194.85 169.14 194.604 170.178 194.604 171.378C194.604 172.578 194.85 173.628 195.342 174.528C195.834 175.428 196.482 176.118 197.286 176.598C198.09 177.078 198.948 177.318 199.86 177.318C200.796 177.318 201.672 177.084 202.488 176.616C203.304 176.148 203.952 175.476 204.432 174.6C204.912 173.724 205.152 172.674 205.152 171.45Z" fill="#0071bc" fill-rule="nonzero" opacity="1" stroke="none"/>
<path d="M222.504 168.822C222.504 166.35 223.062 164.136 224.178 162.18C225.294 160.224 226.818 158.7 228.75 157.608C230.682 156.516 232.848 155.97 235.248 155.97C238.056 155.97 240.516 156.69 242.628 158.13C244.74 159.57 246.216 161.562 247.056 164.106L241.26 164.106C240.684 162.906 239.874 162.006 238.83 161.406C237.786 160.806 236.58 160.506 235.212 160.506C233.748 160.506 232.446 160.848 231.306 161.532C230.166 162.216 229.278 163.182 228.642 164.43C228.006 165.678 227.688 167.142 227.688 168.822C227.688 170.478 228.006 171.936 228.642 173.196C229.278 174.456 230.166 175.428 231.306 176.112C232.446 176.796 233.748 177.138 235.212 177.138C236.58 177.138 237.786 176.832 238.83 176.22C239.874 175.608 240.684 174.702 241.26 173.502L247.056 173.502C246.216 176.07 244.746 178.068 242.646 179.496C240.546 180.924 238.08 181.638 235.248 181.638C232.848 181.638 230.682 181.092 228.75 180C226.818 178.908 225.294 177.39 224.178 175.446C223.062 173.502 222.504 171.294 222.504 168.822Z" fill="#0071bc" fill-rule="nonzero" opacity="1" stroke="none"/>
<path d="M256.416 154.782L256.416 181.422L251.376 181.422L251.376 154.782L256.416 154.782Z" fill="#0071bc" fill-rule="nonzero" opacity="1" stroke="none"/>
<path d="M263.94 159.102C263.052 159.102 262.314 158.82 261.726 158.256C261.138 157.692 260.844 156.99 260.844 156.15C260.844 155.31 261.138 154.608 261.726 154.044C262.314 153.48 263.052 153.198 263.94 153.198C264.828 153.198 265.566 153.48 266.154 154.044C266.742 154.608 267.036 155.31 267.036 156.15C267.036 156.99 266.742 157.692 266.154 158.256C265.566 158.82 264.828 159.102 263.94 159.102ZM266.424 161.478L266.424 181.422L261.384 181.422L261.384 161.478L266.424 161.478Z" fill="#0071bc" fill-rule="nonzero" opacity="1" stroke="none"/>
<path d="M282.444 161.19C284.82 161.19 286.74 161.94 288.204 163.44C289.668 164.94 290.4 167.034 290.4 169.722L290.4 181.422L285.36 181.422L285.36 170.406C285.36 168.822 284.964 167.604 284.172 166.752C283.38 165.9 282.3 165.474 280.932 165.474C279.54 165.474 278.442 165.9 277.638 166.752C276.834 167.604 276.432 168.822 276.432 170.406L276.432 181.422L271.392 181.422L271.392 161.478L276.432 161.478L276.432 163.962C277.104 163.098 277.962 162.42 279.006 161.928C280.05 161.436 281.196 161.19 282.444 161.19Z" fill="#0071bc" fill-rule="nonzero" opacity="1" stroke="none"/>
<path d="M297.744 159.102C296.856 159.102 296.118 158.82 295.53 158.256C294.942 157.692 294.648 156.99 294.648 156.15C294.648 155.31 294.942 154.608 295.53 154.044C296.118 153.48 296.856 153.198 297.744 153.198C298.632 153.198 299.37 153.48 299.958 154.044C300.546 154.608 300.84 155.31 300.84 156.15C300.84 156.99 300.546 157.692 299.958 158.256C299.37 158.82 298.632 159.102 297.744 159.102ZM300.228 161.478L300.228 181.422L295.188 181.422L295.188 161.478L300.228 161.478Z" fill="#0071bc" fill-rule="nonzero" opacity="1" stroke="none"/>
<path d="M303.9 171.45C303.9 169.386 304.32 167.58 305.16 166.032C306 164.484 307.164 163.284 308.652 162.432C310.14 161.58 311.844 161.154 313.764 161.154C316.236 161.154 318.282 161.772 319.902 163.008C321.522 164.244 322.608 165.978 323.16 168.21L317.724 168.21C317.436 167.346 316.95 166.668 316.266 166.176C315.582 165.684 314.736 165.438 313.728 165.438C312.288 165.438 311.148 165.96 310.308 167.004C309.468 168.048 309.048 169.53 309.048 171.45C309.048 173.346 309.468 174.816 310.308 175.86C311.148 176.904 312.288 177.426 313.728 177.426C315.768 177.426 317.1 176.514 317.724 174.69L323.16 174.69C322.608 176.85 321.516 178.566 319.884 179.838C318.252 181.11 316.212 181.746 313.764 181.746C311.844 181.746 310.14 181.32 308.652 180.468C307.164 179.616 306 178.416 305.16 176.868C304.32 175.32 303.9 173.514 303.9 171.45Z" fill="#0071bc" fill-rule="nonzero" opacity="1" stroke="none"/>
</g>
<g opacity="1">
<path d="M119.87 212.848C119.87 214.298 119.374 215.502 118.383 216.461C117.391 217.419 115.878 217.898 113.845 217.898L110.495 217.898L110.495 225.173L108.22 225.173L108.22 207.748L113.845 207.748C115.812 207.748 117.308 208.223 118.333 209.173C119.358 210.123 119.87 211.348 119.87 212.848ZM113.845 216.023C115.112 216.023 116.045 215.748 116.645 215.198C117.245 214.648 117.545 213.865 117.545 212.848C117.545 210.698 116.312 209.623 113.845 209.623L110.495 209.623L110.495 216.023L113.845 216.023Z" fill="#8ec503" fill-rule="nonzero" opacity="1" stroke="none"/>
<path d="M131.87 225.173L127.72 218.048L124.97 218.048L124.97 225.173L122.695 225.173L122.695 207.748L128.32 207.748C129.637 207.748 130.749 207.973 131.658 208.423C132.566 208.873 133.245 209.481 133.695 210.248C134.145 211.015 134.37 211.89 134.37 212.873C134.37 214.073 134.024 215.131 133.333 216.048C132.641 216.965 131.603 217.573 130.22 217.873L134.595 225.173L131.87 225.173ZM124.97 216.223L128.32 216.223C129.553 216.223 130.478 215.919 131.095 215.311C131.712 214.702 132.02 213.89 132.02 212.873C132.02 211.84 131.716 211.04 131.108 210.473C130.499 209.906 129.57 209.623 128.32 209.623L124.97 209.623L124.97 216.223Z" fill="#8ec503" fill-rule="nonzero" opacity="1" stroke="none"/>
<path d="M140.17 207.748L140.17 225.173L137.895 225.173L137.895 207.748L140.17 207.748Z" fill="#8ec503" fill-rule="nonzero" opacity="1" stroke="none"/>
<path d="M161.72 207.873L161.72 225.173L159.445 225.173L159.445 212.273L153.695 225.173L152.095 225.173L146.32 212.248L146.32 225.173L144.045 225.173L144.045 207.873L146.495 207.873L152.895 222.173L159.295 207.873L161.72 207.873Z" fill="#8ec503" fill-rule="nonzero" opacity="1" stroke="none"/>
<path d="M175.87 221.298L168.27 221.298L166.87 225.173L164.47 225.173L170.77 207.848L173.395 207.848L179.67 225.173L177.27 225.173L175.87 221.298ZM175.22 219.448L172.07 210.648L168.92 219.448L175.22 219.448Z" fill="#8ec503" fill-rule="nonzero" opacity="1" stroke="none"/>
<path d="M191.595 225.173L187.445 218.048L184.695 218.048L184.695 225.173L182.42 225.173L182.42 207.748L188.045 207.748C189.362 207.748 190.474 207.973 191.383 208.423C192.291 208.873 192.97 209.481 193.42 210.248C193.87 211.015 194.095 211.89 194.095 212.873C194.095 214.073 193.749 215.131 193.058 216.048C192.366 216.965 191.328 217.573 189.945 217.873L194.32 225.173L191.595 225.173ZM184.695 216.223L188.045 216.223C189.278 216.223 190.203 215.919 190.82 215.311C191.437 214.702 191.745 213.89 191.745 212.873C191.745 211.84 191.441 211.04 190.833 210.473C190.224 209.906 189.295 209.623 188.045 209.623L184.695 209.623L184.695 216.223Z" fill="#8ec503" fill-rule="nonzero" opacity="1" stroke="none"/>
<path d="M209.82 207.748L204.145 218.598L204.145 225.173L201.87 225.173L201.87 218.598L196.17 207.748L198.695 207.748L202.995 216.573L207.295 207.748L209.82 207.748Z" fill="#8ec503" fill-rule="nonzero" opacity="1" stroke="none"/>
<path d="M218.045 216.448C218.045 214.748 218.428 213.219 219.195 211.861C219.962 210.502 221.008 209.44 222.333 208.673C223.658 207.906 225.128 207.523 226.745 207.523C228.645 207.523 230.303 207.981 231.72 208.898C233.137 209.815 234.17 211.115 234.82 212.798L232.095 212.798C231.612 211.748 230.916 210.94 230.008 210.373C229.099 209.806 228.012 209.523 226.745 209.523C225.528 209.523 224.437 209.806 223.47 210.373C222.503 210.94 221.745 211.744 221.195 212.786C220.645 213.827 220.37 215.048 220.37 216.448C220.37 217.831 220.645 219.044 221.195 220.086C221.745 221.127 222.503 221.931 223.47 222.498C224.437 223.065 225.528 223.348 226.745 223.348C228.012 223.348 229.099 223.069 230.008 222.511C230.916 221.952 231.612 221.148 232.095 220.098L234.82 220.098C234.17 221.765 233.137 223.052 231.72 223.961C230.303 224.869 228.645 225.323 226.745 225.323C225.128 225.323 223.658 224.944 222.333 224.186C221.008 223.427 219.962 222.373 219.195 221.023C218.428 219.673 218.045 218.148 218.045 216.448Z" fill="#8ec503" fill-rule="nonzero" opacity="1" stroke="none"/>
<path d="M248.495 221.298L240.895 221.298L239.495 225.173L237.095 225.173L243.395 207.848L246.02 207.848L252.295 225.173L249.895 225.173L248.495 221.298ZM247.845 219.448L244.695 210.648L241.545 219.448L247.845 219.448Z" fill="#8ec503" fill-rule="nonzero" opacity="1" stroke="none"/>
<path d="M264.22 225.173L260.07 218.048L257.32 218.048L257.32 225.173L255.045 225.173L255.045 207.748L260.67 207.748C261.987 207.748 263.099 207.973 264.008 208.423C264.916 208.873 265.595 209.481 266.045 210.248C266.495 211.015 266.72 211.89 266.72 212.873C266.72 214.073 266.374 215.131 265.683 216.048C264.991 216.965 263.953 217.573 262.57 217.873L266.945 225.173L264.22 225.173ZM257.32 216.223L260.67 216.223C261.903 216.223 262.828 215.919 263.445 215.311C264.062 214.702 264.37 213.89 264.37 212.873C264.37 211.84 264.066 211.04 263.458 210.473C262.849 209.906 261.92 209.623 260.67 209.623L257.32 209.623L257.32 216.223Z" fill="#8ec503" fill-rule="nonzero" opacity="1" stroke="none"/>
<path d="M272.52 209.598L272.52 215.423L278.87 215.423L278.87 217.298L272.52 217.298L272.52 223.298L279.62 223.298L279.62 225.173L270.245 225.173L270.245 207.723L279.62 207.723L279.62 209.598L272.52 209.598Z" fill="#8ec503" fill-rule="nonzero" opacity="1" stroke="none"/>
</g>
</g>
</svg>
